<?xml version="1.0" encoding="UTF-8"?>
<svg id="_レイヤー_2" data-name="レイヤー_2" xmlns="http://www.w3.org/2000/svg" xmlns:xlink="http://www.w3.org/1999/xlink" viewBox="0 0 96 96">
  <defs>
    <style>
      .cls-1 {
        fill: url(#linear-gradient-2);
      }

      .cls-2 {
        fill: #fff;
      }

      .cls-3 {
        fill: none;
      }

      .cls-4 {
        fill: url(#linear-gradient);
      }
    </style>
    <linearGradient id="linear-gradient" x1="33.03" y1="42.92" x2="33.03" y2="54.63" gradientUnits="userSpaceOnUse">
      <stop offset="0" stop-color="#e41f1f"/>
      <stop offset=".2" stop-color="#fdec00"/>
      <stop offset=".4" stop-color="#00974a"/>
      <stop offset=".6" stop-color="#009ede"/>
      <stop offset=".8" stop-color="#232286"/>
      <stop offset="1" stop-color="#e3007e"/>
    </linearGradient>
    <linearGradient id="linear-gradient-2" x1="62.42" x2="62.42" y2="54.63" xlink:href="#linear-gradient"/>
  </defs>
  <g id="_レイヤー_1-2" data-name="レイヤー_1">
    <g>
      <g>
        <path class="cls-4" d="M43.65,45.24c0-3.27-4.76-2.13-10.62-2.13s-10.62-.62-10.62,2.13c0,4.5,3.14,9.43,10.74,9.39,8.34-.05,10.5-4.89,10.5-9.39Z"/>
        <path class="cls-1" d="M73.05,45.24c0-3.27-4.76-2.13-10.62-2.13s-10.62-.62-10.62,2.13c0,4.5,3.14,9.39,10.74,9.39,9.22,0,10.5-4.89,10.5-9.39Z"/>
        <path d="M77.29,40.61c.05-.99-.38-1.39-1.33-1.37-1.2.02-2.4.04-3.59-.02l-42.02.03s-10.09,0-10.56,0c-.74-.01-1.1.26-1.07,1.05.04,1.04.08,2.08-.02,3.11-.11,1.09.28,1.76,1.3,2.09.82.27,1.1.8,1.17,1.69.17,2,.84,4.24,1.88,5.6,1.58,2.07,2.35,2.73,4.17,3.81s5.28,1.69,8.14,1.18c3.62-.65,6.52-2.32,8.22-5.7.52-1.03.94-2.11,1.39-3.18.47-1.12,1.34-1.63,2.52-1.7,2.27-.15,3.15.44,4,2.86.71,2.03,1.6,3.94,3.36,5.27,3.85,2.91,8.67,3.56,12.61,1.93,4.05-1.67,4.66-3.17,5.54-4.3,1.05-1.35,1.82-3.74,1.89-5.85.03-.87.33-1.33,1.13-1.55.98-.27,1.41-.89,1.31-1.95-.09-.99-.08-2-.03-2.99ZM33.15,54.63c-2.84-.02-5.72-.87-6.52-2.47h12.8c-.64,1.69-3.44,2.49-6.28,2.47ZM39.5,45.45c-1.96,0-3.91.03-5.87,0-.88,0-1.03.46-1.04,1.22-.01.8.3,1.04,1.06,1.03,2.63-.03,5.25-.01,7.98-.01-.16,1.95-.35,2.13-1.96,2.12-4.35-.01-8.7,0-13.05-.01-1.71,0-1.77-.07-1.87-2.1,1.23,0,2.46-.03,3.68.01.82.03,1.24-.15,1.23-1.11,0-.9-.3-1.21-1.18-1.16-1.07.06-2.15-.02-3.23.02-.82.03-.88-.44-.88-1.07,0-.65.11-1.05.91-1.05,5.51.02,11.01,0,16.52.04,1.54.01.54,1.24,1.1,2.06-1.34,0-2.36,0-3.39,0ZM48.88,44.93h0c-.28,0-.55,0-.83,0-.2,0-.4,0-.59,0h0c-.12,0-.23,0-.35,0-.8,0-1.51-.08-1.46-1.34.07-1.53.48-2.07,1.91-2.12.25,0,.48-.01.69,0,1.48.03,2.01.42,2.22,1.48.26,1.31-.26,1.96-1.59,1.99ZM63.29,54.58c-2.58.02-5.13-.03-7.23-2.43h13.58c-1.78,2.27-4.04,2.42-6.35,2.43ZM69.57,49.78c-4.39,0-8.78,0-13.18,0-1.76,0-1.81-.05-1.98-2h16.92c.04,1.73-.2,2-1.76,2ZM70.43,45.45c-5.34,0-10.68,0-16.02,0-.72,0-1.3.05-1.32-1-.03-1.12.59-1.08,1.36-1.08,5.26.01,10.52,0,15.78,0,.43,0,.86.04,1.4.06.05.71.08,1.26.13,1.95-.48.03-.91.07-1.33.07Z"/>
      </g>
      <g>
        <g>
          <path class="cls-2" d="M70.39,91.75c-.03-.34-.13-1.07-.36-2.44-.2-1.22-.52-2.41-.74-3.63-.12-.65-.45-.78-1.02-.57-.98.35-1.96.69-2.93,1.04-1.21.44-1.52-.44-1.89-1.26-.41-.91.08-1.26.84-1.61,1.84-.86,3.65-1.78,5.45-2.72,1.18-.61,1.44-1.61,1.13-2.84-.54-2.12-1.03-4.26-1.63-6.37-.26-.89-.08-1.43.71-1.88.58-.33,1.1-.78,1.71-1.21-.51-1.04-1-2.07-1.52-3.09-.53-1.04-.49-1.98.35-2.85.19-.2.32-.46.51-.66.93-.96.89-1.94.16-3.01-.5-.72-.76-1.82-1.42-2.12-.53-.24-1.48.5-2.27.72-4.49,1.26-8.76.98-12.61-1.93-1.76-1.33-2.65-3.24-3.36-5.27-.85-2.42-1.73-3.01-4-2.86-1.18.08-2.05.58-2.52,1.7-.45,1.06-.87,2.15-1.39,3.18-1.7,3.38-4.59,5.05-8.22,5.7-2.86.51-5.56.08-8.14-1.18-.71-.35-1.11-.25-1.39.46-.07.18-.16.37-.28.53-1.34,1.75-1.47,3.42.23,5.05.73.7.67,1.58.27,2.44-.37.79-.72,1.6-1.18,2.35-.38.61-.48,1.11.24,1.47,1.9.94,1.95,2.38,1.32,4.17-.53,1.5-.83,3.08-1.24,4.62-.33,1.23-.04,2.25,1.11,2.87,1.79.96,3.6,1.89,5.44,2.74.81.37,1.01.83.63,1.58-.36.72-.54,1.72-1.76,1.25-1.11-.43-2.22-.85-3.53-1.35-.27.99-.53,1.89-.74,2.79-.2.85-.35,1.72-.54,2.57-.15.68-.18,1.03-.2,1.45s-4.14.98-3.74-.46,1.28-4.61,1.97-6.9c.21-.71.08-1.11-.58-1.45-.56-.29-1.08-.68-1.57-1.09-.87-.73-1.19-1.67-.88-2.79.5-1.8.97-3.62,1.52-5.41.54-1.75,1.18-3.47,1.78-5.25,0-.01-.02-.12-.08-.14-2.28-1.15-3.15-2.81-3.02-5.53.14-2.89.69-5.51,2.12-7.97.4-.69.4-1.19-.06-1.83-1.21-1.66-1.72-3.6-1.88-5.6-.07-.89-.35-1.42-1.17-1.69-1.02-.33-1.41-1-1.3-2.09.1-1.03.06-2.08.02-3.11-.03-.8.33-1.07,1.07-1.05,1.28.02,2.56-.03,3.83.02.85.04,1.11-.31,1.09-1.12-.05-1.56.04-3.12-.05-4.67-.04-.69-.27-1.41-.56-2.05-2.82-6.35-3.56-12.92-1.52-19.59,1.39-4.56,4.59-7.68,9.04-9.45,1.8-.71,2.33-.34,2.34,1.56,0,5.55,0,11.1,0,16.65,0,.47,0,.95,0,1.6,1.67-.36,2.98-.51,3.99-2.11,2.58-4.09,9.17-4.63,12.9-1.21,1.12,1.03,2.01,2.31,3.13,3.62,2.42-.77,5.12-.88,7.97.12.05-.61.12-1.1.12-1.59,0-5.79,0-11.58.01-17.37,0-1.63.27-1.82,1.85-1.31,5.74,1.83,9.98,7.42,10.54,13.57.47,5.16-.19,10.11-2.26,14.84-1.13,2.59-.53,5.27-.63,7.91,0,.18.51.54.8.56,1.19.06,2.39.04,3.59.02.96-.02,1.38.39,1.33,1.37-.05,1-.06,2,.03,2.99.1,1.06-.33,1.68-1.31,1.95-.81.22-1.1.68-1.13,1.55-.07,2.11-.74,4.07-1.89,5.85-.39.6-.43,1.06-.06,1.73,1.29,2.33,1.99,4.77,2.07,7.51.08,2.69-.11,4.95-3.1,5.78.83,2.61,1.61,5.03,2.36,7.45.32,1.03.61,2.06.86,3.11.5,2.07.14,3.03-1.74,4.05-1,.54-1.25,1.07-.92,2.16.67,2.21,1.51,5.74,1.77,6.7s-3.77,1.13-3.84.32ZM30.44,7.05c-2.69,2.01-4.34,4.27-5.08,7.16-.64,2.51-.59,5.04-.3,7.6.3,2.65.96,5.14,2.38,7.44.45.73.64,1.67.74,2.54.22,2.05.29,4.11.46,6.17.08,1.03.72,1.29,1.72,1.29,11.85-.03,23.71-.03,35.56,0,.94,0,1.47-.3,1.54-1.21.17-2.18.23-4.36.44-6.54.08-.84.28-1.73.68-2.46,2.89-5.2,3.44-10.64,1.61-16.26-.75-2.31-2.39-4.05-4.52-5.7-.03.74-.07,1.2-.07,1.65.07,7.02.2,14.04.19,21.06,0,1.08-.5,2.21-.98,3.23-.3.64-.97,1.1-1.8.59-.79-.48-.82-1.05-.49-1.91,1.21-3.1-.39-6.03-3.63-6.79-2.01-.47-3.76.21-5.43,1.26-1.34.84-2.06.51-2.38-1.01-.63-3.07-2.78-5.08-5.89-5.43-1.74-.2-3.24.37-4.33,1.79-.94,1.22-1.08,2.58-.39,3.93.33.65,1,1.12,1.43,1.72.27.38.65.98.52,1.29-.18.42-.77.88-1.22.92-.58.06-1.24-.19-1.79-.46-1.6-.79-2.08-2.41-2.7-3.96-1.26.19-2.09.88-2.65,1.9-.91,1.67-1.05,3.42-.27,5.17.34.76.11,1.34-.55,1.56-.46.16-1.38.09-1.54-.2-.6-1.08-1.2-2.24-1.38-3.44-.2-1.27.12-2.62.12-3.93.02-5.79.01-11.57.02-17.36,0-.42,0-.85,0-1.63ZM25.27,43.35c-.8,0-.91.4-.91,1.05,0,.62.06,1.1.88,1.07,1.08-.04,2.16.04,3.23-.02.88-.05,1.18.26,1.18,1.16,0,.96-.41,1.14-1.23,1.11-1.22-.04-2.45-.01-3.68-.01.1,2.03.16,2.1,1.87,2.1,4.35,0,8.7,0,13.05.01,1.61,0,1.8-.17,1.96-2.12-2.72,0-5.35-.02-7.98.01-.76,0-1.07-.23-1.06-1.03.01-.76.16-1.22,1.04-1.22,1.95.02,3.91,0,5.87,0,1.02,0,2.04,0,3.39,0-.56-.82.44-2.05-1.1-2.06l-16.52-.04ZM71.63,43.44c-.54-.02-.97-.06-1.4-.06-5.26,0-10.52,0-15.78,0-.77,0-1.38-.04-1.36,1.08.02,1.05.6,1,1.32,1,5.34,0,10.68,0,16.02,0,.42,0,.84-.04,1.33-.07-.05-.68-.08-1.24-.13-1.95ZM54.42,47.78c.17,1.95.22,2,1.98,2,4.39,0,8.78,0,13.18,0,1.56,0,1.8-.27,1.76-2h-16.92ZM69.65,52.15h-13.58c2.1,2.4,4.65,2.45,7.23,2.43,2.31-.01,4.58-.16,6.35-2.43ZM39.43,52.16h-12.8c1.6,3.21,11.52,3.38,12.8,0ZM48.05,44.93c.28,0,.55,0,.83,0,1.33-.04,1.85-.69,1.59-1.99-.24-1.21-.9-1.54-2.91-1.47-1.43.05-1.84.59-1.91,2.12-.06,1.45.87,1.34,1.8,1.34.2,0,.4,0,.59,0Z"/>
          <g>
            <path class="cls-2" d="M33.61,63.78c0-1.2.03-2.39,0-3.59-.02-.83.33-1.18,1.14-1.1.24.02.48.03.72,0,.97-.14,1.36.21,1.32,1.24-.07,1.83.09,3.68-.05,5.5-.16,2.09.65,3.61,2.23,4.87,1.09.87,2.11,1.81,3.17,2.71,3.69,3.14,8.2,3.02,11.77-.28.99-.92,2.02-1.79,3.08-2.63,1.47-1.17,2.26-2.62,2.22-4.53-.04-1.95.02-3.91-.02-5.86-.02-.92.44-1.1,1.18-1.01.71.09,1.74-.35,1.76.97.02,2.39.16,4.8-.02,7.17-.09,1.16-.53,2.55-1.3,3.35-2.3,2.36-4.65,4.74-7.33,6.61-3.6,2.51-9.07,1.95-12.41-.86-1.86-1.56-3.62-3.24-5.42-4.88-1.41-1.29-2.05-2.9-2.01-4.8.02-.96,0-1.91,0-2.87Z"/>
            <path class="cls-2" d="M51.37,70.87c-.73-.17-1.58-.17-2.15-.56-.97-.67-1.69-.41-2.61.04-1.92.94-4.37.55-5.8-.82-.28-.27-.6-.61-.66-.96-.06-.38.1-.84.31-1.18.06-.1.61.08.93.16,1.14.29,2.26.75,3.41.84,1.17.1,1.85-.65,1.89-1.85.04-1.07-.02-2.16-.18-3.21-.06-.39-.48-.83-.86-1.05-1.17-.69-2.38-1.29-3.59-1.9-.86-.43-1.35-.97-.83-1.99.49-.98,1.23-.9,2.01-.5,1.2.63,2.42,1.24,3.53,2.01.79.55,1.37.52,2.15.03,1.25-.79,2.56-1.45,3.84-2.19.84-.48,1.45-.26,1.87.56.41.81.23,1.46-.6,1.9-1.34.71-2.7,1.38-3.99,2.16-.37.23-.73.76-.77,1.19-.11,1.07-.04,2.15-.03,3.23,0,1.03.64,1.51,1.57,1.63,1.26.15,2.44-.04,3.53-.78.33-.23.89-.13,1.35-.18-.06.58.1,1.33-.2,1.7-1.02,1.25-2.48,1.65-4.11,1.72Z"/>
          </g>
          <g>
            <path class="cls-2" d="M56.56,79.67c-.18-.22-.59-.5-.68-.87-.21-.8.08-1.35,1.02-1.5,2.69-.41,5.13-1.41,7.27-3.11.62-.49,1.24-1.02,1.71-1.65.47-.64.85-1.21,1.69-.61.93.66,1.21,1.88.5,2.6-.81.81-1.7,1.57-2.66,2.18-2.59,1.65-5.49,2.47-8.83,2.95Z"/>
            <path class="cls-2" d="M36.84,79.89c-3.38-1.08-6.48-2.39-8.5-5.42-.55-.83-.34-1.88.49-2.27.31-.14.96.03,1.23.29.97.94,1.76,2.1,2.79,2.96.77.65,1.79,1.02,2.73,1.44,1.65.72,1.73.83,1.26,3Z"/>
          </g>
          <g>
            <path class="cls-2" d="M61.53,86.48c-1.89.34-3.62.68-5.37.97-.98.17-1.97.25-2.95.41-.55.09-1.03.05-.94-.64.08-.6-.68-1.53.54-1.74,2.42-.42,4.85-.8,7.28-1.15.26-.04.71.18.84.41.26.46.37,1.02.6,1.74Z"/>
            <path class="cls-2" d="M40,87.8c-1.85-.49-3.64-.94-5.41-1.47-.16-.05-.33-.73-.21-.94.27-.44.78-1.11,1.12-1.07,1.45.18,2.87.55,4.28.93.23.06.52.48.52.74,0,.54-.17,1.07-.3,1.81Z"/>
            <path class="cls-2" d="M46.38,88.16c-.44,0-.72-.03-1,0-.97.11-1.22-.38-1.21-1.27,0-.86.27-1.27,1.18-1.18.51.05,1.04.06,1.55,0,1.17-.15,1.51.33,1.45,1.48-.09,1.81-1.44.64-1.97.98Z"/>
          </g>
          <g>
            <path class="cls-2" d="M30.29,91.22c.9-2.2,1.71-2.5,3.56-1.53.31.16.61.42.95.48.93.18,1.12.62.87,1.52-.27.98-.83.89-1.55.67-1.24-.38-2.49-.74-3.83-1.14Z"/>
            <path class="cls-2" d="M65.68,91.23c-1.51.42-3.01.86-4.54,1.2-.17.04-.64-.54-.68-.87-.05-.42.07-1.17.33-1.27,1.09-.44,2.26-.9,3.41-.93.54-.01,1.11.94,1.66,1.46-.06.14-.11.27-.17.41Z"/>
            <path class="cls-2" d="M48.15,93.91c-.99.18-1.45-.1-1.47-1.29-.02-1.49.92-1.12,1.74-1.21,1.05-.11,1.35.27,1.37,1.33.03,1.35-.74,1.26-1.65,1.17Z"/>
            <path class="cls-2" d="M56.1,91.2c.06.14.08.18.09.21.48,1.88-.26,2.73-2.13,2.22-.4-.11-.63-1.09-.77-1.71-.04-.17.47-.64.77-.69.65-.11,1.33-.03,2.04-.03Z"/>
            <path class="cls-2" d="M39.8,92.32c.11-.52-.08-1.51.97-1.25.68.18,2.03-.47,1.94,1.02-.04.59.26,1.64-1.02,1.61-1.48-.04-1.9-.29-1.89-1.39Z"/>
          </g>
        </g>
        <rect class="cls-3" width="96" height="96"/>
      </g>
    </g>
  </g>
</svg>