<?xml version="1.0" encoding="UTF-8"?>
<svg id="_レイヤー_2" data-name="レイヤー_2" xmlns="http://www.w3.org/2000/svg" viewBox="0 0 101.25 21.49">
  <defs>
    <style>
      .cls-1 {
        isolation: isolate;
      }

      .cls-1, .cls-2 {
        fill: #ffffff;
      }
    </style>
  </defs>
  <g id="_レイヤー_1-2" data-name="レイヤー_1">
    <g>
      <g>
        <g id="_トレラマ" data-name="トレラマ">
          <g class="cls-1">
            <path d="M89.5,21.37v-1.12h5.44v1.12h-5.44ZM94.61,16.47v1.11h-4.77v-1.11"/>
            <polygon points="96.28 21.49 96.28 20.38 97.22 20.38 97.79 18.13 99.65 18.13 100.14 17.6 100.14 17.29 95.76 17.29 95.76 16.17 101.25 16.17 101.25 18.05 100.14 19.24 98.65 19.24 98.05 21.49 96.28 21.49"/>
          </g>
          <g>
            <path class="cls-2" d="M89.5,21.37v-1.12h5.44v1.12h-5.44ZM94.61,16.47v1.11h-4.77v-1.11"/>
            <polygon class="cls-2" points="96.28 21.49 96.28 20.38 97.22 20.38 97.79 18.13 99.65 18.13 100.14 17.6 100.14 17.29 95.76 17.29 95.76 16.17 101.25 16.17 101.25 18.05 100.14 19.24 98.65 19.24 98.05 21.49 96.28 21.49"/>
          </g>
        </g>
        <g id="_トレラマ-2" data-name="トレラマ">
          <g class="cls-1">
            <path d="M43.52,14.84v-1.11h4.77v1.11h-4.77Z"/>
          </g>
          <path class="cls-2" d="M43.52,14.84v-1.11h4.77v1.11h-4.77Z"/>
        </g>
        <g id="_トレラマ-3" data-name="トレラマ">
          <g class="cls-1">
            <path d="M70.16,14.84v-1.11h4.77v1.11h-4.77Z"/>
          </g>
          <path class="cls-2" d="M70.16,14.84v-1.11h4.77v1.11h-4.77Z"/>
        </g>
      </g>
      <g class="cls-1">
        <polygon points="0 21.35 0 0 4.02 0 4.02 6.28 14.31 10.8 18.85 10.8 18.85 14.84 13.66 14.84 4.02 10.64 4.02 21.35 0 21.35"/>
        <polygon points="23.18 21.35 23.18 0 27.22 0 27.22 17.33 35.64 17.33 39.17 8.11 43.41 8.11 38.44 21.35 23.18 21.35"/>
        <path d="M47.69,21.35v-3.99h12.03l3.93-3.64v-3.6h-17.02v-3.99h21.06v9.33l-6.34,5.89h-13.66ZM47.57,4.47V.48h19.21v3.99h-19.21Z"/>
        <polygon points="82.26 21.35 74.79 8.16 79.32 8.16 81.78 12.48 89.33 7.34 89.33 4.54 71.74 4.54 71.74 .48 93.39 .48 93.39 9.38 83.72 15.88 86.85 21.35 82.26 21.35"/>
      </g>
    </g>
  </g>
</svg>